<svg id="Ebene_1" data-name="Ebene 1" xmlns="http://www.w3.org/2000/svg" viewBox="0 0 94 101.02"><defs><style>.cls-1{fill:#d2d3d4;}.cls-2{fill:#939394;}.cls-3,.cls-9{fill:#5a5a5a;}.cls-4{fill:#d4b047;}.cls-5{fill:#e4e4e4;}.cls-6{fill:#424241;}.cls-7{fill:gray;}.cls-8{fill:#e7e7e5;}.cls-9{font-size:9px;font-family:Arial-BoldMT, Arial;font-weight:700;}.cls-10{letter-spacing:-0.07em;}.cls-11{fill:#706e6e;}</style></defs><title>Visualisierungen</title><path class="cls-1" d="M22.42,38.3s-4.7-3.14-4.23-3.87c2.36-3.7,5.06-14.68-.19-15.93-1.66-.39-3.94-3.27-4.52-4.16S10.22,7.73,8.32,8.67s3.5,9.84,3.5,9.84a6.86,6.86,0,0,0-2.65.27s-1.57.56-1.55,1.37c.1,3.08,1.8,2.06-.07,3.2-.86.53-1.24,3.66.33,3.77,0,0-.91,1,1.7,3.26L15,36.82s-.33,4.21.11,4.06Z"/><path class="cls-2" d="M89,101.25s-3.86-27-4.23-27.5c-3.28-4.82-9.48-4.54-25.87-5-6.22-.16-9.92,0-12.26.41L31.12,60,22.6,31.28l-11.72,2.6,8.94,36.33L40.1,90.74c.16,5.65.44,10.51.44,10.51C41.08,101.3,90.66,101.25,89,101.25Z"/><ellipse class="cls-3" cx="59.51" cy="71.26" rx="12.12" ry="5.7"/><path class="cls-4" d="M65.36,49.49a.6.6,0,0,1-.6.6.6.6,0,0,1,0-1.2A.6.6,0,0,1,65.36,49.49Z"/><path class="cls-5" d="M74.63,27s3.54-3.45,3.57,1.25a19.9,19.9,0,0,1-.61,5.25s-.62,2.32-1,4c-.29,1.28-2,.25-2,.25Z"/><path class="cls-1" d="M77.79,34.31c0-2.45-1.13-2.37-2-1.9.46-12.83-8.39-16.23-16.16-16.23-8.29,0-15.17,7.84-16.47,18.12-1.28-1.23-2.86-1.72-2,4.76.74,5.63,1.69,5.44,2.39,4.13,1.41,6.34,5.15,11.7,9.56,14.44,0,1.07.11,2.46.09,3.83-.09,4.22-1,5.41-2,9.44a5.93,5.93,0,0,0,3.18,1.92,30.72,30.72,0,0,0,8.87.38,9.86,9.86,0,0,0,4.71-2,35.09,35.09,0,0,1-1.79-10.84c0-1,0-1.94.12-2.76,4.77-2.66,8.38-8,9.62-14.69a.64.64,0,0,0,.57-.55c.32-1.45.86-3.48.86-3.48A18.21,18.21,0,0,0,77.79,34.31Z"/><path class="cls-6" d="M67.82,33.34c-2.08,0-3.64.83-3.64,1.93v.25h.89v-.25c0-.28.5-.65,1.33-.86a1.23,1.23,0,0,0-.35.85,1.58,1.58,0,0,0,3.14,0,1.28,1.28,0,0,0-.44-.95c1.13.17,1.82.62,1.82,1v.25h.9v-.25C71.47,34.17,69.9,33.34,67.82,33.34Z"/><path class="cls-6" d="M52.15,33.34c-2.07,0-3.64.83-3.64,1.93v.25h.9v-.25c0-.29.52-.68,1.4-.89a1.29,1.29,0,0,0-.27.78,1.58,1.58,0,0,0,3.14,0,1.27,1.27,0,0,0-.3-.8c.95.2,1.52.6,1.52.91v.25h.9v-.25C55.8,34.17,54.23,33.34,52.15,33.34Z"/><path class="cls-2" d="M54.24,50.71s4-.26,4.65-.16,1.35.31,1.35.31a8.62,8.62,0,0,1,1.18-.27c.48-.09,5.1.23,5.1.23s-4.12,2.36-6.41,2.26A12.06,12.06,0,0,1,54.24,50.71Z"/><path class="cls-3" d="M76.22,14.83a10,10,0,0,0-1.24-1c.39-2.79-5.06-6.54-7.18-6.83-2.36-.33-6.75-1.72-9.7-1.24-9.81,1.57-11.82,4.39-12.11,6-1.67.38-3.32.87-4.3,2.34a15,15,0,0,0-2.38,8.95c-2,3,.48,8.88,1.54,7.94.1.31.2.61.32.92,1,2.75,1.44,5.32,1.73,5.9,1.2,2.39,1.76-3,2.36-6.49.83,5.73,1.38,4.08,3.5-1,1.78-4.29,14.29-6.55,14.29-6.55,4.75,1.5,4.57-3.36,6.14-1.95,1.37,1.23,2.69.44,3.69-.7a56.83,56.83,0,0,1,2.68,12.91s-.37,5.95.57,3.75a38.33,38.33,0,0,1,2.45-5.05c.18-.7.52-2,.79-3.74C80,30.17,81.81,15.52,76.22,14.83Z"/><path class="cls-7" d="M75.87,31.42c-1-.94-2.81-1.16-6.12-1.16-4.81,0-6.53,1.15-7.11,3.26a7,7,0,0,0-5-.07c-.63-2-2.39-3.07-7-3.07-3.31,0-5.17.23-6.12,1.17-1.15,1.14-.72,2.31-.4,3.58.07.28.15.56.2.83.55,2.75.35,4.5,3.84,4.5,2.82,0,7.47.43,8.69-.79.81-.81,1.2-3.09,1.14-4.35a1.79,1.79,0,0,1,0-.23,5.39,5.39,0,0,1,4.47.1c-.07,1.27.32,3.54,1.14,4.35,1.21,1.22,5.86.79,8.68.79,3.5,0,3.3-1.75,3.84-4.49.06-.28.13-.56.2-.84C76.59,33.73,77,32.56,75.87,31.42Zm-20.22,7.1c-.88.89-4.56.5-6.9.47C46,39,46,37.79,45.59,35.82l0-.16c-.06-.3-.14-.61-.22-.92-.31-1.2-.17-1.58.28-2,.27-.27.75-.59,2.19-.72a25.11,25.11,0,0,1,3-.12c4.8.22,5.31,1,5.54,3.45A5.63,5.63,0,0,1,55.65,38.52ZM75,34.61c-.08.31-.16.62-.22.92l0,.16c-.4,2-.44,3.14-3.16,3.17-2.35,0-6,.42-6.91-.46A5.77,5.77,0,0,1,64,35.19c.22-2.45.74-3.23,5.54-3.45a24.84,24.84,0,0,1,3,.12c1.44.13,1.92.45,2.19.72C75.18,33,75.31,33.41,75,34.61Z"/><rect class="cls-8" x="48.39" y="85" width="24.24" height="12.21"/><text class="cls-9" transform="translate(51.29 94.31)"><tspan class="cls-10">T</tspan><tspan x="4.83" y="0">AM</tspan></text><path class="cls-11" d="M74.11,16.58a12.06,12.06,0,0,0-4.64-2.24A16.88,16.88,0,0,0,64.26,14a23.1,23.1,0,0,0-9.74,3.57l-1.11.69c-.36.25-.7.52-1,.78-.68.52-1.4,1-2.06,1.57-1.31,1.08-2.67,2.11-4,3.08A21.89,21.89,0,0,1,44.09,25a6.1,6.1,0,0,1-2.3.78,1.14,1.14,0,0,1-1-.34,1.81,1.81,0,0,1-.36-1.1,8,8,0,0,1,.37-2.5,6.93,6.93,0,0,0-.63,2.51,2.05,2.05,0,0,0,.32,1.32,1.58,1.58,0,0,0,1.29.6,6.55,6.55,0,0,0,2.58-.7,21.08,21.08,0,0,0,2.29-1.25,43.43,43.43,0,0,0,4.23-3c.69-.54,1.37-1,2-1.52l1-.75L55,18.42a24.73,24.73,0,0,1,9.31-3.66A14.66,14.66,0,0,1,74.11,16.58Z"/><path class="cls-11" d="M68.08,17.28c-.25.1-.51.18-.74.3l-.71.4a6,6,0,0,0-2.46,3.87A11.82,11.82,0,0,1,66,19.6a6.29,6.29,0,0,1,2.37-1.37A13.16,13.16,0,0,1,74.11,18a7.6,7.6,0,0,0-2.9-1A7.25,7.25,0,0,0,68.08,17.28Z"/><path class="cls-11" d="M50.68,13.25a30.66,30.66,0,0,1,3.39-1.35c.59-.17,1.14-.41,1.74-.53L57.58,11a21.48,21.48,0,0,1,7.2,0,18.5,18.5,0,0,1,6.82,2.57,13.93,13.93,0,0,0-3.11-2.07,15.47,15.47,0,0,0-1.74-.71l-.9-.31-.91-.23A18.91,18.91,0,0,0,57.41,10a24.21,24.21,0,0,0-7.08,2.56c-1.09.6-2.11,1.34-3.16,2S45.24,16.13,44.31,17c1.07-.64,2.09-1.33,3.13-2S49.57,13.75,50.68,13.25Z"/></svg>